<svg width="16" height="17" viewBox="0 0 16 17" fill="none" xmlns="http://www.w3.org/2000/svg">
<path d="M7.99992 1.83334C4.32659 1.83334 1.33325 4.82667 1.33325 8.5C1.33325 12.1733 4.32659 15.1667 7.99992 15.1667C11.6733 15.1667 14.6666 12.1733 14.6666 8.5C14.6666 4.82667 11.6733 1.83334 7.99992 1.83334ZM11.1866 6.96667L7.40659 10.7467C7.31325 10.84 7.18659 10.8933 7.05325 10.8933C6.91992 10.8933 6.79325 10.84 6.69992 10.7467L4.81325 8.86C4.61992 8.66667 4.61992 8.34667 4.81325 8.15334C5.00659 7.96 5.32659 7.96 5.51992 8.15334L7.05325 9.68667L10.4799 6.26C10.6733 6.06667 10.9933 6.06667 11.1866 6.26C11.3799 6.45334 11.3799 6.76667 11.1866 6.96667Z" fill="#FFFFFF"/>
</svg>
